<svg width="125.000000" height="13.000000" viewBox="0 0 125 13" fill="none" xmlns="http://www.w3.org/2000/svg" xmlns:xlink="http://www.w3.org/1999/xlink">
	<desc>
			Created with Pixso.
	</desc>
	<defs/>
	<path id="   " d="M82.17 7.31L84.08 7.31L84.43 4.95L82.17 4.95L82.17 3.42Q82.17 3.02 82.35 2.71Q82.41 2.62 82.48 2.53C82.7 2.28 83.05 2.15 83.52 2.15L84.54 2.15L84.54 0.15L84.28 0.12C84.11 0.09 83.88 0.06 83.57 0.05C83.27 0.01 82.98 0 82.71 0C82.1 0 81.56 0.12 81.08 0.38Q80.82 0.51 80.61 0.69Q80.25 1 80.02 1.44C79.76 1.92 79.64 2.49 79.64 3.17L79.64 4.95L77.58 4.95L77.58 7.31L79.64 7.31L79.64 13L82.17 13L82.17 7.31ZM122.8 4.18C122.8 4.03 122.79 3.92 122.77 3.85C123.3 3.47 123.75 3 124.12 2.46C123.61 2.68 123.1 2.82 122.6 2.89C123.17 2.53 123.56 2.04 123.77 1.42C123.24 1.72 122.67 1.93 122.06 2.05C121.54 1.49 120.89 1.21 120.11 1.21C119.38 1.21 118.75 1.48 118.23 2C117.72 2.53 117.47 3.15 117.47 3.88C117.47 4.08 117.49 4.29 117.52 4.49C116.44 4.44 115.41 4.17 114.45 3.68C113.5 3.19 112.69 2.53 112.03 1.7C111.78 2.12 111.65 2.57 111.65 3.04C111.65 3.99 112.05 4.73 112.85 5.28C112.42 5.26 112.03 5.14 111.65 4.92L111.65 4.97C111.65 5.39 111.75 5.79 111.93 6.16Q112.04 6.37 112.17 6.55Q112.4 6.84 112.69 7.08C113.02 7.33 113.38 7.5 113.79 7.59C113.55 7.64 113.31 7.66 113.08 7.66C112.92 7.66 112.76 7.65 112.59 7.64C112.76 8.16 113.07 8.6 113.51 8.96C113.96 9.3 114.49 9.47 115.08 9.47C114.1 10.23 112.99 10.61 111.76 10.61C111.52 10.61 111.31 10.6 111.12 10.58C112.36 11.38 113.72 11.78 115.21 11.78C116.39 11.78 117.48 11.55 118.46 11.09C119.44 10.63 120.24 10.04 120.85 9.31Q121.58 8.44 122.05 7.43Q122.18 7.16 122.29 6.88C122.63 5.98 122.8 5.08 122.8 4.18ZM12.22 4.24Q12.76 3.37 12.83 2.99Q12.91 2.72 12.8 2.58Q12.69 2.43 12.38 2.43L10.88 2.43C10.57 2.43 10.36 2.58 10.24 2.86L10.01 3.35Q9.79 3.85 9.33 4.62C9.02 5.12 8.71 5.56 8.39 5.91C8.08 6.22 7.85 6.37 7.68 6.37Q7.63 6.37 7.59 6.35Q7.45 6.27 7.45 5.94L7.45 2.99Q7.45 2.63 7.28 2.5Q7.18 2.43 7.04 2.43L4.68 2.43C4.61 2.43 4.55 2.45 4.48 2.48C4.43 2.52 4.39 2.56 4.35 2.61C4.32 2.66 4.3 2.72 4.3 2.79Q4.3 2.89 4.38 3.02L4.58 3.27C4.65 3.34 4.72 3.46 4.78 3.63C4.85 3.8 4.89 4 4.91 4.24L4.91 6.44Q4.91 6.77 4.83 6.9C4.8 6.97 4.73 7 4.63 7C4.36 7 3.96 6.6 3.44 5.78Q2.68 4.57 2.14 3.02C2.08 2.8 1.99 2.64 1.89 2.56C1.8 2.47 1.67 2.43 1.48 2.43L-0.01 2.43Q-0.31 2.43 -0.43 2.58Q-0.52 2.68 -0.52 2.86C-0.52 3.03 -0.46 3.32 -0.34 3.73Q-0.17 4.34 0.39 5.5Q0.98 6.65 1.84 7.82C2.45 8.7 3.16 9.37 3.97 9.85Q5.19 10.56 6.38 10.56Q7.07 10.56 7.27 10.43C7.41 10.33 7.48 10.18 7.48 9.97C7.48 9.8 7.47 9.58 7.45 9.31Q7.45 8.48 7.5 8.3C7.53 8.18 7.65 8.12 7.86 8.12C8.18 8.12 8.68 8.44 9.35 9.08C9.52 9.25 9.69 9.43 9.86 9.62C10.03 9.8 10.16 9.95 10.24 10.05C10.33 10.15 10.42 10.24 10.52 10.33C10.62 10.41 10.72 10.47 10.8 10.51C10.89 10.54 10.99 10.56 11.11 10.56L12.6 10.56C13.06 10.56 13.23 10.35 13.11 9.92C13.06 9.79 12.97 9.62 12.83 9.41C12.71 9.21 12.57 9.02 12.4 8.83C12.25 8.63 12.08 8.42 11.89 8.22C11.71 8.02 11.54 7.84 11.39 7.69L10.98 7.28L10.83 7.1C10.73 6.94 10.67 6.82 10.67 6.75C10.67 6.68 10.73 6.57 10.83 6.42C10.84 6.4 11 6.18 11.28 5.76C11.57 5.32 11.89 4.81 12.22 4.24Z" fill="#686868" fill-opacity="1.000000" fill-rule="evenodd"/>
	<path id="   " d="M51.02 6.5C51.02 5.39 51.01 4.62 51 4.16C50.94 3.13 50.63 2.33 50.06 1.77C49.5 1.2 48.7 0.88 47.67 0.83C47.21 0.82 46.43 0.81 45.33 0.81C44.23 0.81 43.45 0.82 43 0.83C41.96 0.88 41.17 1.2 40.61 1.77Q40.56 1.82 40.51 1.88Q39.77 2.7 39.7 4.13C39.66 4.61 39.65 5.39 39.65 6.5C39.65 7.6 39.66 8.37 39.7 8.83Q39.7 9.34 39.77 9.72C39.84 9.97 39.94 10.24 40.08 10.51C40.21 10.78 40.39 11.01 40.61 11.22C41.17 11.78 41.96 12.08 43 12.13C43.45 12.17 44.23 12.18 45.33 12.18C46.43 12.18 47.21 12.17 47.67 12.13C48.7 12.1 49.5 11.8 50.06 11.24C50.63 10.67 50.94 9.86 51 8.83C51.01 8.37 51.02 7.6 51.02 6.5ZM49.9 9.34C49.87 9.54 49.83 9.71 49.78 9.85C49.57 10.35 49.21 10.72 48.68 10.94C48.55 10.99 48.37 11.03 48.15 11.07Q47.85 11.12 47.39 11.14C47.1 11.16 46.86 11.17 46.68 11.17L43.96 11.17C43.79 11.17 43.56 11.16 43.25 11.14Q42.82 11.12 42.49 11.07C42.29 11.03 42.12 10.99 41.98 10.94C41.47 10.74 41.11 10.37 40.89 9.85C40.86 9.73 40.82 9.58 40.79 9.39Q40.74 9.11 40.71 8.86C40.69 8.67 40.68 8.45 40.66 8.2L40.66 5.15C40.66 4.96 40.67 4.73 40.69 4.44Q40.71 3.98 40.76 3.68C40.8 3.46 40.84 3.28 40.89 3.14C41.09 2.62 41.46 2.25 41.98 2.05C42.12 2 42.29 1.96 42.49 1.92Q42.82 1.87 43.25 1.85C43.56 1.83 43.8 1.82 43.99 1.82L46.68 1.82C46.86 1.82 47.1 1.83 47.39 1.85Q47.85 1.87 48.15 1.92C48.37 1.96 48.55 2 48.68 2.05C49.21 2.25 49.57 2.62 49.78 3.14C49.83 3.28 49.87 3.46 49.9 3.68Q49.95 3.98 49.98 4.44C50 4.73 50 4.96 50 5.15L50 7.84C50 8.03 50 8.27 49.98 8.58Q49.95 9.01 49.9 9.34ZM49.04 3.45C49.04 3.26 48.97 3.11 48.84 2.99C48.72 2.86 48.57 2.79 48.38 2.79C48.19 2.79 48.03 2.86 47.9 2.99C47.76 3.11 47.69 3.26 47.69 3.45C47.69 3.63 47.76 3.8 47.9 3.93C48.03 4.07 48.19 4.13 48.38 4.13Q48.53 4.13 48.66 4.07Q48.76 4.02 48.84 3.93C48.97 3.8 49.04 3.63 49.04 3.45ZM45.33 3.58C44.52 3.58 43.83 3.86 43.25 4.44Q42.87 4.82 42.66 5.27Q42.41 5.83 42.41 6.5Q42.41 7.13 42.64 7.67Q42.85 8.17 43.25 8.58C43.83 9.14 44.52 9.41 45.33 9.41Q46 9.41 46.55 9.16Q47.01 8.96 47.39 8.58C47.97 8 48.25 7.31 48.25 6.5C48.25 5.68 47.97 5 47.39 4.44Q46.99 4.03 46.5 3.81Q45.97 3.58 45.33 3.58ZM45.33 8.4C44.81 8.4 44.36 8.21 43.99 7.84C43.61 7.47 43.43 7.02 43.43 6.5C43.43 5.97 43.61 5.52 43.99 5.15C44.36 4.78 44.81 4.59 45.33 4.59C45.86 4.59 46.31 4.78 46.68 5.15C47.05 5.52 47.24 5.97 47.24 6.5C47.24 7.02 47.05 7.47 46.68 7.84C46.31 8.21 45.86 8.4 45.33 8.4Z" fill="#FFFFFF" fill-opacity="1.000000" fill-rule="evenodd"/>
</svg>
