<svg width="24.000000" height="24.000000" viewBox="0 0 24 24" fill="none" xmlns="http://www.w3.org/2000/svg" xmlns:xlink="http://www.w3.org/1999/xlink">
	<desc>
			Created with Pixso.
	</desc>
	<defs>
		<clipPath id="clip1_24177">
			<rect id="cinema 1" width="24.000000" height="24.000000" fill="white" fill-opacity="0"/>
		</clipPath>
	</defs>
	<rect id="cinema 1" width="24.000000" height="24.000000" fill="#3657CB" fill-opacity="0"/>
	<g clip-path="url(#clip1_24177)">
		<path id="XMLID 1469" d="M13.26 6.49C13.26 5.09 12.13 3.96 10.73 3.96C9.33 3.96 8.2 5.09 8.2 6.49C8.2 7.88 9.33 9.02 10.73 9.02C12.13 9.02 13.26 7.88 13.26 6.49ZM9.14 6.49C9.14 5.61 9.85 4.89 10.73 4.89C11.61 4.89 12.32 5.61 12.32 6.49C12.32 7.37 11.61 8.08 10.73 8.08C9.85 8.08 9.14 7.37 9.14 6.49Z" fill="#FFFFFF" fill-opacity="1.000000" fill-rule="nonzero"/>
		<path id="XMLID 1605" d="M6.64 12.55C7.24 12.24 7.69 11.72 7.9 11.08C8.11 10.43 8.05 9.75 7.75 9.14C7.44 8.54 6.91 8.09 6.27 7.89C5.63 7.68 4.94 7.73 4.34 8.04C3.74 8.34 3.29 8.87 3.08 9.51C2.87 10.15 2.93 10.84 3.24 11.44C3.54 12.04 4.07 12.49 4.71 12.7C4.97 12.78 5.23 12.83 5.49 12.83C5.89 12.83 6.28 12.73 6.64 12.55ZM5 11.81C4.59 11.68 4.26 11.4 4.07 11.02C3.88 10.64 3.84 10.21 3.98 9.8C4.11 9.4 4.39 9.07 4.77 8.87C4.99 8.76 5.24 8.7 5.49 8.7C5.65 8.7 5.82 8.73 5.98 8.78C6.39 8.91 6.72 9.19 6.91 9.57C7.1 9.95 7.14 10.38 7 10.78C6.87 11.19 6.59 11.52 6.21 11.71C5.83 11.91 5.4 11.94 5 11.81Z" fill="#FFFFFF" fill-opacity="1.000000" fill-rule="nonzero"/>
		<path id="XMLID 1609" d="M6 18.5C6.45 18.82 6.97 18.98 7.49 18.98C8.27 18.98 9.05 18.62 9.54 17.94C9.94 17.39 10.1 16.72 9.99 16.05C9.89 15.39 9.53 14.8 8.98 14.4C8.43 14 7.76 13.84 7.1 13.95C6.43 14.06 5.84 14.41 5.44 14.96C4.62 16.09 4.88 17.68 6 18.5ZM6.2 15.51C6.45 15.17 6.82 14.94 7.24 14.88C7.33 14.86 7.41 14.86 7.5 14.86C7.83 14.86 8.15 14.96 8.43 15.16C9.14 15.68 9.3 16.68 8.78 17.39C8.26 18.1 7.27 18.26 6.56 17.74C5.84 17.22 5.69 16.23 6.2 15.51Z" fill="#FFFFFF" fill-opacity="1.000000" fill-rule="nonzero"/>
		<path id="XMLID 1659" d="M13.97 18.98C14.49 18.98 15.01 18.82 15.46 18.5C16.58 17.68 16.84 16.09 16.02 14.96C15.62 14.41 15.03 14.06 14.36 13.95C13.7 13.84 13.03 14 12.48 14.4C11.93 14.8 11.57 15.39 11.47 16.05C11.36 16.72 11.52 17.39 11.92 17.94C12.41 18.62 13.19 18.98 13.97 18.98ZM13.03 15.16C13.38 14.91 13.8 14.81 14.22 14.88C14.64 14.94 15.01 15.17 15.26 15.51C15.77 16.23 15.62 17.22 14.91 17.74C14.19 18.26 13.2 18.1 12.68 17.39C12.16 16.68 12.32 15.68 13.03 15.16Z" fill="#FFFFFF" fill-opacity="1.000000" fill-rule="nonzero"/>
		<path id="XMLID 1678" d="M15.19 7.89C14.54 8.09 14.02 8.54 13.71 9.14C13.41 9.75 13.35 10.43 13.56 11.08C13.77 11.72 14.22 12.24 14.82 12.55C15.18 12.73 15.57 12.83 15.97 12.83C16.23 12.83 16.49 12.78 16.75 12.7C17.39 12.49 17.92 12.04 18.22 11.44C18.53 10.84 18.58 10.15 18.38 9.51C18.17 8.87 17.72 8.34 17.12 8.04C16.51 7.73 15.83 7.68 15.19 7.89ZM16.69 8.87C17.07 9.07 17.35 9.4 17.48 9.8C17.61 10.21 17.58 10.64 17.39 11.02C17.19 11.4 16.87 11.68 16.46 11.81C16.06 11.94 15.62 11.91 15.25 11.71C14.87 11.52 14.58 11.19 14.45 10.78C14.32 10.38 14.36 9.95 14.55 9.57C14.74 9.19 15.07 8.91 15.48 8.78C15.64 8.73 15.8 8.7 15.97 8.7C16.22 8.7 16.46 8.76 16.69 8.87Z" fill="#FFFFFF" fill-opacity="1.000000" fill-rule="nonzero"/>
		<path id="XMLID 1713" d="M12.34 12C12.34 11.11 11.62 10.39 10.73 10.39C9.84 10.39 9.12 11.11 9.12 12C9.12 12.88 9.84 13.6 10.73 13.6C11.62 13.6 12.34 12.88 12.34 12ZM10.06 12C10.06 11.63 10.36 11.33 10.73 11.33C11.1 11.33 11.4 11.63 11.4 12C11.4 12.36 11.1 12.66 10.73 12.66C10.36 12.66 10.06 12.36 10.06 12Z" fill="#FFFFFF" fill-opacity="1.000000" fill-rule="nonzero"/>
		<path id="XMLID 1768" d="M23.86 20.7C23.33 20.17 22.62 19.88 21.87 19.88C21.12 19.88 20.42 20.17 19.89 20.7C19.19 21.41 18.25 21.79 17.26 21.79L15.13 21.79C16.3 21.26 17.38 20.52 18.32 19.58C20.35 17.56 21.46 14.86 21.46 12C21.46 9.9 20.86 7.87 19.71 6.12C19.57 5.9 19.28 5.84 19.07 5.98C18.85 6.13 18.79 6.42 18.93 6.63C19.97 8.23 20.53 10.08 20.53 12C20.53 17.4 16.13 21.79 10.73 21.79C5.33 21.79 0.93 17.4 0.93 12C0.93 6.59 5.33 2.2 10.73 2.2C12.65 2.2 14.5 2.75 16.1 3.8C16.32 3.94 16.61 3.88 16.75 3.66C16.89 3.45 16.83 3.16 16.61 3.02C14.86 1.87 12.83 1.26 10.73 1.26C7.86 1.26 5.17 2.38 3.14 4.41C1.11 6.43 0 9.13 0 12C0 14.86 1.11 17.56 3.14 19.58C5.17 21.61 7.86 22.73 10.73 22.73L17.26 22.73C18.5 22.73 19.67 22.25 20.55 21.37C20.91 21.01 21.37 20.82 21.87 20.82C22.37 20.82 22.84 21.01 23.19 21.37C23.38 21.55 23.67 21.55 23.86 21.37C24.04 21.18 24.04 20.89 23.86 20.7Z" fill="#FFFFFF" fill-opacity="1.000000" fill-rule="nonzero"/>
		<path id="XMLID 1769" d="M17.99 5.21C18.11 5.21 18.24 5.16 18.32 5.07C18.41 4.98 18.46 4.86 18.46 4.74C18.46 4.62 18.41 4.5 18.32 4.41C18.24 4.32 18.11 4.27 17.99 4.27C17.87 4.27 17.75 4.32 17.66 4.41C17.57 4.5 17.52 4.62 17.52 4.74C17.52 4.86 17.57 4.98 17.66 5.07C17.75 5.16 17.87 5.21 17.99 5.21Z" fill="#FFFFFF" fill-opacity="1.000000" fill-rule="nonzero"/>
	</g>
</svg>
