<svg width="59.000000" height="26.000000" viewBox="0 0 59 26" fill="none" xmlns="http://www.w3.org/2000/svg" xmlns:xlink="http://www.w3.org/1999/xlink">
	<desc>
			Created with Pixso.
	</desc>
	<defs/>
	<circle id="Ellipse 4" cx="46.000000" cy="13.000000" r="13.000000" fill="#1E2538" fill-opacity="1.000000"/>
	<circle id="Ellipse 4" cx="46.000000" cy="13.000000" r="12.500000" stroke="#2B354E" stroke-opacity="1.000000" stroke-width="1.000000"/>
	<circle id="Ellipse 3" cx="13.000000" cy="13.000000" r="13.000000" fill="#1E2538" fill-opacity="1.000000"/>
	<circle id="Ellipse 3" cx="13.000000" cy="13.000000" r="12.500000" stroke="#2B354E" stroke-opacity="1.000000" stroke-width="1.000000"/>
	<path id=" " d="M13.78 12.75L15.53 12.75L15.86 10.57L13.78 10.57L13.78 9.16Q13.78 8.78 13.94 8.5Q13.99 8.42 14.06 8.34Q14.08 8.32 14.1 8.29Q14.41 7.99 15.02 7.99L15.96 7.99L15.96 6.14L15.72 6.11Q15.49 6.07 15.07 6.04Q14.64 6 14.27 6Q13.43 6 12.77 6.34Q12.77 6.35 12.77 6.35Q12.53 6.47 12.33 6.64Q12 6.92 11.78 7.33Q11.43 7.99 11.43 8.92L11.43 10.57L9.53 10.57L9.53 12.75L11.43 12.75L11.43 18L13.78 18L13.78 12.75ZM51.28 9.86Q51.28 9.65 51.25 9.56Q51.58 9.32 51.86 9.04Q52.21 8.69 52.5 8.27Q51.79 8.57 51.09 8.67Q51.53 8.39 51.82 8Q52.04 7.69 52.17 7.31Q51.95 7.43 51.73 7.53Q51.19 7.78 50.6 7.89Q50.25 7.53 49.83 7.33Q49.36 7.12 48.79 7.12Q48.32 7.12 47.91 7.28Q47.44 7.46 47.06 7.85Q46.7 8.21 46.53 8.65Q46.35 9.08 46.35 9.58Q46.35 9.86 46.4 10.14Q45.64 10.11 44.91 9.91Q44.22 9.73 43.57 9.39Q42.86 9.03 42.26 8.52Q41.76 8.09 41.34 7.57Q41.11 7.94 41.03 8.35Q40.99 8.57 40.99 8.81Q40.99 9.44 41.24 9.94Q41.52 10.48 42.09 10.87Q41.85 10.86 41.62 10.8Q41.29 10.72 40.99 10.54L40.99 10.59Q40.99 10.93 41.07 11.24Q41.14 11.47 41.25 11.69Q41.34 11.88 41.47 12.04Q41.67 12.32 41.95 12.53Q42.14 12.69 42.36 12.8Q42.64 12.94 42.96 13Q42.63 13.07 42.3 13.07Q42.09 13.07 41.85 13.05Q41.95 13.36 42.12 13.62Q42.35 13.98 42.7 14.27Q42.95 14.45 43.23 14.57Q43.66 14.74 44.15 14.74Q43.45 15.28 42.66 15.54Q41.91 15.79 41.08 15.79Q40.75 15.79 40.5 15.77Q41.28 16.27 42.13 16.55Q43.15 16.87 44.27 16.87Q45.85 16.87 47.17 16.28Q47.22 16.26 47.27 16.24Q48.63 15.6 49.47 14.6Q50.15 13.79 50.59 12.86Q50.71 12.61 50.81 12.35Q51.28 11.1 51.28 9.86Z" fill="#FFFFFF" fill-opacity="0.500000" fill-rule="evenodd"/>
</svg>
